<?xml version="1.0" encoding="UTF-8" standalone="no"?>
<svg
   xmlns:dc="http://purl.org/dc/elements/1.1/"
   xmlns:cc="http://creativecommons.org/ns#"
   xmlns:rdf="http://www.w3.org/1999/02/22-rdf-syntax-ns#"
   xmlns:svg="http://www.w3.org/2000/svg"
   xmlns="http://www.w3.org/2000/svg"
   xmlns:sodipodi="http://sodipodi.sourceforge.net/DTD/sodipodi-0.dtd"
   xmlns:inkscape="http://www.inkscape.org/namespaces/inkscape"
   width="5mm"
   height="5mm"
   version="1.1"
   viewBox="0 0 14.173228 14.173228"
   id="svg951"
   sodipodi:docname="battery-5mm-1000dpi.svg"
   inkscape:version="0.92.5 (2060ec1f9f, 2020-04-08)">
  <metadata
     id="metadata957">
    <rdf:RDF>
      <cc:Work
         rdf:about="">
        <dc:format>image/svg+xml</dc:format>
        <dc:type
           rdf:resource="http://purl.org/dc/dcmitype/StillImage" />
        <dc:title></dc:title>
      </cc:Work>
    </rdf:RDF>
  </metadata>
  <defs
     id="defs955" />
  <sodipodi:namedview
     pagecolor="#ffffff"
     bordercolor="#666666"
     borderopacity="1"
     objecttolerance="10"
     gridtolerance="10"
     guidetolerance="10"
     inkscape:pageopacity="0"
     inkscape:pageshadow="2"
     inkscape:window-width="1920"
     inkscape:window-height="1019"
     id="namedview953"
     showgrid="false"
     units="mm"
     inkscape:zoom="26.700352"
     inkscape:cx="11.741748"
     inkscape:cy="11.229805"
     inkscape:window-x="0"
     inkscape:window-y="89"
     inkscape:window-maximized="1"
     inkscape:current-layer="svg951" />
  <g
     id="g949"
     transform="matrix(0.01280035,0,0,0.01280035,-0.5936602,-0.5935642)">
    <path
       d="M 838.97,184.85 H 361.04 c -35.664,0 -64.586,28.922 -64.586,64.586 v 839.59 c 0,35.676 28.922,64.598 64.586,64.598 h 477.93 c 35.664,0 64.586,-28.922 64.586,-64.598 l -0.004,-839.59 c 0,-35.676 -28.918,-64.586 -64.582,-64.586 z M 445.48,974.63 582.93,633.19 H 419.8 L 533.61,363.84 H 738.49 L 624.72,508 h 155.5 z"
       id="path945"
       inkscape:connector-curvature="0" />
    <path
       d="M 471.97,162.09 V 69.137 c 0,-12.574 10.188,-22.766 22.766,-22.766 h 210.56 c 12.551,0 22.754,10.188 22.754,22.766 v 92.953 z"
       id="path947"
       inkscape:connector-curvature="0" />
  </g>
</svg>
