<?xml version="1.0" encoding="UTF-8" standalone="no"?>
<svg
   xmlns:dc="http://purl.org/dc/elements/1.1/"
   xmlns:cc="http://creativecommons.org/ns#"
   xmlns:rdf="http://www.w3.org/1999/02/22-rdf-syntax-ns#"
   xmlns:svg="http://www.w3.org/2000/svg"
   xmlns="http://www.w3.org/2000/svg"
   xmlns:sodipodi="http://sodipodi.sourceforge.net/DTD/sodipodi-0.dtd"
   xmlns:inkscape="http://www.inkscape.org/namespaces/inkscape"
   width="5mm"
   height="5mm"
   version="1.1"
   viewBox="0 0 14.173228 14.173228"
   id="svg4"
   sodipodi:docname="lightbulb-5mm-1000dpi.svg"
   inkscape:version="0.92.5 (2060ec1f9f, 2020-04-08)"
   inkscape:export-filename="/home/chrisg/Golioth/ostentus-hw/mech/lightbulb-5mm-1000dpi.png"
   inkscape:export-xdpi="1000.76"
   inkscape:export-ydpi="1000.76">
  <metadata
     id="metadata10">
    <rdf:RDF>
      <cc:Work
         rdf:about="">
        <dc:format>image/svg+xml</dc:format>
        <dc:type
           rdf:resource="http://purl.org/dc/dcmitype/StillImage" />
        <dc:title />
      </cc:Work>
    </rdf:RDF>
  </metadata>
  <defs
     id="defs8" />
  <sodipodi:namedview
     pagecolor="#ffffff"
     bordercolor="#666666"
     borderopacity="1"
     objecttolerance="10"
     gridtolerance="10"
     guidetolerance="10"
     inkscape:pageopacity="0"
     inkscape:pageshadow="2"
     inkscape:window-width="1920"
     inkscape:window-height="1019"
     id="namedview6"
     showgrid="false"
     inkscape:zoom="73.025"
     inkscape:cx="9.4488189"
     inkscape:cy="10.301127"
     inkscape:window-x="0"
     inkscape:window-y="89"
     inkscape:window-maximized="1"
     inkscape:current-layer="svg4"
     units="mm" />
  <path
     d="M 7.0866095,3.0288229e-7 C 3.1968465,3.0288229e-7 0.03149251,3.1653543 -3.4889233e-6,7.0393693 -0.01574349,8.9291333 0.70865751,10.724408 2.0472405,12.062991 c 1.322834,1.354331 3.102362,2.094488 4.992125,2.110236 h 0.04727 c 3.8897645,0 7.0551185,-3.165354 7.0866145,-7.0393697 C 14.20473,3.2283463 11.039392,0.0314963 7.0866355,3.028823e-7 Z M 7.7795365,11.921259 h -1.385827 c -0.251955,0 -0.456706,-0.204751 -0.456706,-0.456706 0,-0.251956 0.204751,-0.456706 0.456706,-0.456706 h 1.385827 c 0.251955,0 0.456706,0.20475 0.456706,0.456706 0,0.252008 -0.204751,0.456706 -0.456706,0.456706 z m 0.440918,-1.275578 h -2.267716 c -0.251955,0 -0.456706,-0.20475 -0.456706,-0.456706 0,-0.2519547 0.204751,-0.4567057 0.456706,-0.4567057 h 2.267716 c 0.251956,0 0.456706,0.204751 0.456706,0.4567057 -5.2e-5,0.252008 -0.20475,0.456706 -0.456758,0.456706 z m 0,-1.3543297 h -2.267716 c -0.251955,0 -0.456706,-0.204751 -0.456706,-0.456706 0,-0.251956 0.204751,-0.456706 0.456706,-0.456706 h 0.677191 l -5.2e-5,-1.811024 h -0.09448 c -0.251955,0 -0.456706,-0.20475 -0.456706,-0.456706 0,-0.251955 0.204751,-0.456706 0.456706,-0.456706 h 1.102362 c 0.251956,0 0.456706,0.204751 0.456706,0.456706 0,0.251956 -0.20475,0.456706 -0.456706,0.456706 h -0.09448 v 1.811024 h 0.677191 c 0.251956,0 0.456706,0.20475 0.456706,0.456706 -5.2e-5,0.251955 -0.20475,0.456706 -0.456758,0.456706 z m 1.133885,-1.417323 c -0.09448,0.07874 -0.220486,0.126005 -0.330696,0.126005 -0.126005,0 -0.23622,-0.03148 -0.330695,-0.126005 -0.173216,-0.173215 -0.173216,-0.472441 0,-0.645656 0.42517,-0.425171 0.661391,-0.992152 0.661391,-1.606299 0,-0.614186 -0.236221,-1.181102 -0.661391,-1.606299 -0.881877,-0.881877 -2.330709,-0.881877 -3.212598,0 -0.881877,0.881876 -0.881877,2.330708 0,3.212598 0.173215,0.173215 0.173215,0.472441 0,0.645656 -0.173216,0.173215 -0.472441,0.173215 -0.645657,0 -1.244107,-1.244107 -1.244107,-3.259842 0,-4.503937 1.244108,-1.244107 3.259843,-1.244107 4.519685,0 0.598451,0.598452 0.9291475,1.401575 0.9291475,2.251969 0,0.850301 -0.3307485,1.653412 -0.9291475,2.251837 z"
     id="path2"
     inkscape:connector-curvature="0"
     style="stroke-width:0.01312336" />
</svg>
