  0
SECTION
  2
HEADER
  9
$ACADVER
  1
AC1014
  9
$HANDSEED
  5
FFFF
  9
$MEASUREMENT
 70
     1
  0
ENDSEC
  0
SECTION
  2
TABLES
  0
TABLE
  2
VPORT
  5
8
330
0
100
AcDbSymbolTable
 70
     4
  0
VPORT
  5
2E
330
8
100
AcDbSymbolTableRecord
100
AcDbViewportTableRecord
  2
*ACTIVE
 70
     0
 10
0.0
 20
0.0
 11
1.0
 21
1.0
 12
210.0
 22
148.5
 13
0.0
 23
0.0
 14
10.0
 24
10.0
 15
10.0
 25
10.0
 16
0.0
 26
0.0
 36
1.0
 17
0.0
 27
0.0
 37
0.0
 40
341.0
 41
1.24
 42
50.0
 43
0.0
 44
0.0
 50
0.0
 51
0.0
 71
     0
 72
   100
 73
     1
 74
     3
 75
     0
 76
     0
 77
     0
 78
     0
  0
ENDTAB
  0
TABLE
  2
LTYPE
  5
5
330
0
100
AcDbSymbolTable
 70
     1
  0
LTYPE
  5
14
330
5
100
AcDbSymbolTableRecord
100
AcDbLinetypeTableRecord
  2
BYBLOCK
 70
     0
  3

 72
    65
 73
     0
 40
0.0
  0
LTYPE
  5
15
330
5
100
AcDbSymbolTableRecord
100
AcDbLinetypeTableRecord
  2
BYLAYER
 70
     0
  3

 72
    65
 73
     0
 40
0.0
  0
LTYPE
  5
16
330
5
100
AcDbSymbolTableRecord
100
AcDbLinetypeTableRecord
  2
CONTINUOUS
 70
     0
  3
Solid line
 72
    65
 73
     0
 40
0.0
  0
ENDTAB
  0
TABLE
  2
LAYER
  5
2
100
AcDbSymbolTable
 70
1
  0
LAYER
  5
50
100
AcDbSymbolTableRecord
100
AcDbLayerTableRecord
  2
0
 70
0
  6
CONTINUOUS
  0
ENDTAB
  0
TABLE
  2
STYLE
  5
3
330
0
100
AcDbSymbolTable
 70
     1
  0
STYLE
  5
11
330
3
100
AcDbSymbolTableRecord
100
AcDbTextStyleTableRecord
  2
STANDARD
 70
     0
 40
0.0
 41
1.0
 50
0.0
 71
     0
 42
2.5
  3
txt
  4

  0
ENDTAB
  0
TABLE
  2
VIEW
  5
6
330
0
100
AcDbSymbolTable
 70
     0
  0
ENDTAB
  0
TABLE
  2
UCS
  5
7
330
0
100
AcDbSymbolTable
 70
     0
  0
ENDTAB
  0
TABLE
  2
APPID
  5
9
330
0
100
AcDbSymbolTable
 70
     2
  0
APPID
  5
12
330
9
100
AcDbSymbolTableRecord
100
AcDbRegAppTableRecord
  2
ACAD
 70
     0
  0
ENDTAB
  0
TABLE
  2
DIMSTYLE
  5
A
330
0
100
AcDbSymbolTable
 70
     1
  0
DIMSTYLE
105
27
330
A
100
AcDbSymbolTableRecord
100
AcDbDimStyleTableRecord
  2
ISO-25
 70
     0
  3

  4

  5

  6

  7

 40
1.0
 41
2.5
 42
0.625
 43
3.75
 44
1.25
 45
0.0
 46
0.0
 47
0.0
 48
0.0
140
2.5
141
2.5
142
0.0
143
0.03937007874016
144
1.0
145
0.0
146
1.0
147
0.625
 71
     0
 72
     0
 73
     0
 74
     0
 75
     0
 76
     0
 77
     1
 78
     8
170
     0
171
     3
172
     1
173
     0
174
     0
175
     0
176
     0
177
     0
178
     0
270
     2
271
     2
272
     2
273
     2
274
     3
340
11
275
     0
280
     0
281
     0
282
     0
283
     0
284
     8
285
     0
286
     0
287
     3
288
     0
  0
ENDTAB
  0
TABLE
  2
BLOCK_RECORD
  5
1
330
0
100
AcDbSymbolTable
 70
     1
  0
BLOCK_RECORD
  5
1F
330
1
100
AcDbSymbolTableRecord
100
AcDbBlockTableRecord
  2
*MODEL_SPACE
  0
BLOCK_RECORD
  5
1B
330
1
100
AcDbSymbolTableRecord
100
AcDbBlockTableRecord
  2
*PAPER_SPACE
  0
ENDTAB
  0
ENDSEC
  0
SECTION
  2
BLOCKS
  0
BLOCK
  5
20
330
1F
100
AcDbEntity
  8
0
100
AcDbBlockBegin
  2
*MODEL_SPACE
 70
     0
 10
0.0
 20
0.0
 30
0.0
  3
*MODEL_SPACE
  1

  0
ENDBLK
  5
21
330
1F
100
AcDbEntity
  8
0
100
AcDbBlockEnd
  0
BLOCK
  5
1C
330
1B
100
AcDbEntity
 67
     1
  8
0
100
AcDbBlockBegin
  2
*PAPER_SPACE
  1

  0
ENDBLK
  5
1D
330
1B
100
AcDbEntity
 67
     1
  8
0
100
AcDbBlockEnd
  0
ENDSEC
  0
SECTION
  2
ENTITIES
  0
SPLINE
  5
100
100
AcDbEntity
  8
0
 62
7
100
AcDbSpline
 70
8
 71
3
 72
8
 73
4
 74
0
 40
0
 40
0
 40
0
 40
0
 40
1
 40
1
 40
1
 40
1
 10
0.098425
 20
0.196850
 30
0.0
 10
0.044401
 20
0.196850
 30
0.0
 10
0.000437
 20
0.152887
 30
0.0
 10
-0.000000
 20
0.099081
 30
0.0
  0
SPLINE
  5
101
100
AcDbEntity
  8
0
 62
7
100
AcDbSpline
 70
8
 71
3
 72
8
 73
4
 74
0
 40
0
 40
0
 40
0
 40
0
 40
1
 40
1
 40
1
 40
1
 10
-0.000000
 20
0.099081
 30
0.0
 10
-0.000219
 20
0.072835
 30
0.0
 10
0.009842
 20
0.047900
 30
0.0
 10
0.028434
 20
0.029309
 30
0.0
  0
SPLINE
  5
102
100
AcDbEntity
  8
0
 62
7
100
AcDbSpline
 70
8
 71
3
 72
8
 73
4
 74
0
 40
0
 40
0
 40
0
 40
0
 40
1
 40
1
 40
1
 40
1
 10
0.028434
 20
0.029309
 30
0.0
 10
0.046807
 20
0.010499
 30
0.0
 10
0.071522
 20
0.000219
 30
0.0
 10
0.097769
 20
0.000000
 30
0.0
  0
LINE
  5
103
100
AcDbEntity
  8
0
 62
7
100
AcDbLine
 10
0.097769
 20
0.000000
 30
0.0
 11
0.098425
 21
0.000000
 31
0.0
  0
SPLINE
  5
104
100
AcDbEntity
  8
0
 62
7
100
AcDbSpline
 70
8
 71
3
 72
8
 73
4
 74
0
 40
0
 40
0
 40
0
 40
0
 40
1
 40
1
 40
1
 40
1
 10
0.098425
 20
0.000000
 30
0.0
 10
0.152450
 20
0.000000
 30
0.0
 10
0.196413
 20
0.043963
 30
0.0
 10
0.196851
 20
0.097769
 30
0.0
  0
SPLINE
  5
105
100
AcDbEntity
  8
0
 62
7
100
AcDbSpline
 70
8
 71
3
 72
8
 73
4
 74
0
 40
0
 40
0
 40
0
 40
0
 40
1
 40
1
 40
1
 40
1
 10
0.196851
 20
0.097769
 30
0.0
 10
0.197288
 20
0.152012
 30
0.0
 10
0.153325
 20
0.196413
 30
0.0
 10
0.098425
 20
0.196850
 30
0.0
  0
LINE
  5
106
100
AcDbEntity
  8
0
 62
7
100
AcDbLine
 10
0.098425
 20
0.196850
 30
0.0
 11
0.098425
 21
0.196850
 31
0.0
  0
LINE
  5
107
100
AcDbEntity
  8
0
 62
7
100
AcDbLine
 10
0.108049
 20
0.031277
 30
0.0
 11
0.088802
 21
0.031277
 31
0.0
  0
SPLINE
  5
108
100
AcDbEntity
  8
0
 62
7
100
AcDbSpline
 70
8
 71
3
 72
8
 73
4
 74
0
 40
0
 40
0
 40
0
 40
0
 40
1
 40
1
 40
1
 40
1
 10
0.088802
 20
0.031277
 30
0.0
 10
0.085302
 20
0.031277
 30
0.0
 10
0.082458
 20
0.034121
 30
0.0
 10
0.082458
 20
0.037620
 30
0.0
  0
SPLINE
  5
109
100
AcDbEntity
  8
0
 62
7
100
AcDbSpline
 70
8
 71
3
 72
8
 73
4
 74
0
 40
0
 40
0
 40
0
 40
0
 40
1
 40
1
 40
1
 40
1
 10
0.082458
 20
0.037620
 30
0.0
 10
0.082458
 20
0.041120
 30
0.0
 10
0.085302
 20
0.043964
 30
0.0
 10
0.088802
 20
0.043964
 30
0.0
  0
LINE
  5
10a
100
AcDbEntity
  8
0
 62
7
100
AcDbLine
 10
0.088802
 20
0.043964
 30
0.0
 11
0.108049
 21
0.043964
 31
0.0
  0
SPLINE
  5
10b
100
AcDbEntity
  8
0
 62
7
100
AcDbSpline
 70
8
 71
3
 72
8
 73
4
 74
0
 40
0
 40
0
 40
0
 40
0
 40
1
 40
1
 40
1
 40
1
 10
0.108049
 20
0.043964
 30
0.0
 10
0.111548
 20
0.043964
 30
0.0
 10
0.114392
 20
0.041120
 30
0.0
 10
0.114392
 20
0.037620
 30
0.0
  0
SPLINE
  5
10c
100
AcDbEntity
  8
0
 62
7
100
AcDbSpline
 70
8
 71
3
 72
8
 73
4
 74
0
 40
0
 40
0
 40
0
 40
0
 40
1
 40
1
 40
1
 40
1
 10
0.114392
 20
0.037620
 30
0.0
 10
0.114392
 20
0.034120
 30
0.0
 10
0.111548
 20
0.031277
 30
0.0
 10
0.108049
 20
0.031277
 30
0.0
  0
LINE
  5
10d
100
AcDbEntity
  8
0
 62
7
100
AcDbLine
 10
0.108049
 20
0.031277
 30
0.0
 11
0.108049
 21
0.031277
 31
0.0
  0
LINE
  5
10e
100
AcDbEntity
  8
0
 62
7
100
AcDbLine
 10
0.114173
 20
0.048994
 30
0.0
 11
0.082677
 21
0.048994
 31
0.0
  0
SPLINE
  5
10f
100
AcDbEntity
  8
0
 62
7
100
AcDbSpline
 70
8
 71
3
 72
8
 73
4
 74
0
 40
0
 40
0
 40
0
 40
0
 40
1
 40
1
 40
1
 40
1
 10
0.082677
 20
0.048994
 30
0.0
 10
0.079178
 20
0.048994
 30
0.0
 10
0.076334
 20
0.051837
 30
0.0
 10
0.076334
 20
0.055337
 30
0.0
  0
SPLINE
  5
110
100
AcDbEntity
  8
0
 62
7
100
AcDbSpline
 70
8
 71
3
 72
8
 73
4
 74
0
 40
0
 40
0
 40
0
 40
0
 40
1
 40
1
 40
1
 40
1
 10
0.076334
 20
0.055337
 30
0.0
 10
0.076334
 20
0.058836
 30
0.0
 10
0.079178
 20
0.061680
 30
0.0
 10
0.082677
 20
0.061680
 30
0.0
  0
LINE
  5
111
100
AcDbEntity
  8
0
 62
7
100
AcDbLine
 10
0.082677
 20
0.061680
 30
0.0
 11
0.114173
 21
0.061680
 31
0.0
  0
SPLINE
  5
112
100
AcDbEntity
  8
0
 62
7
100
AcDbSpline
 70
8
 71
3
 72
8
 73
4
 74
0
 40
0
 40
0
 40
0
 40
0
 40
1
 40
1
 40
1
 40
1
 10
0.114173
 20
0.061680
 30
0.0
 10
0.117672
 20
0.061680
 30
0.0
 10
0.120516
 20
0.058836
 30
0.0
 10
0.120516
 20
0.055337
 30
0.0
  0
SPLINE
  5
113
100
AcDbEntity
  8
0
 62
7
100
AcDbSpline
 70
8
 71
3
 72
8
 73
4
 74
0
 40
0
 40
0
 40
0
 40
0
 40
1
 40
1
 40
1
 40
1
 10
0.120516
 20
0.055337
 30
0.0
 10
0.120515
 20
0.051837
 30
0.0
 10
0.117672
 20
0.048994
 30
0.0
 10
0.114172
 20
0.048994
 30
0.0
  0
LINE
  5
114
100
AcDbEntity
  8
0
 62
7
100
AcDbLine
 10
0.114172
 20
0.048994
 30
0.0
 11
0.114173
 21
0.048994
 31
0.0
  0
LINE
  5
115
100
AcDbEntity
  8
0
 62
7
100
AcDbLine
 10
0.114173
 20
0.067804
 30
0.0
 11
0.082677
 21
0.067804
 31
0.0
  0
SPLINE
  5
116
100
AcDbEntity
  8
0
 62
7
100
AcDbSpline
 70
8
 71
3
 72
8
 73
4
 74
0
 40
0
 40
0
 40
0
 40
0
 40
1
 40
1
 40
1
 40
1
 10
0.082677
 20
0.067804
 30
0.0
 10
0.079178
 20
0.067804
 30
0.0
 10
0.076334
 20
0.070648
 30
0.0
 10
0.076334
 20
0.074147
 30
0.0
  0
SPLINE
  5
117
100
AcDbEntity
  8
0
 62
7
100
AcDbSpline
 70
8
 71
3
 72
8
 73
4
 74
0
 40
0
 40
0
 40
0
 40
0
 40
1
 40
1
 40
1
 40
1
 10
0.076334
 20
0.074147
 30
0.0
 10
0.076334
 20
0.077646
 30
0.0
 10
0.079178
 20
0.080490
 30
0.0
 10
0.082677
 20
0.080490
 30
0.0
  0
LINE
  5
118
100
AcDbEntity
  8
0
 62
7
100
AcDbLine
 10
0.082677
 20
0.080490
 30
0.0
 11
0.092082
 21
0.080490
 31
0.0
  0
LINE
  5
119
100
AcDbEntity
  8
0
 62
7
100
AcDbLine
 10
0.092082
 20
0.080490
 30
0.0
 11
0.092082
 21
0.105643
 31
0.0
  0
LINE
  5
11a
100
AcDbEntity
  8
0
 62
7
100
AcDbLine
 10
0.092082
 20
0.105643
 30
0.0
 11
0.090769
 21
0.105643
 31
0.0
  0
SPLINE
  5
11b
100
AcDbEntity
  8
0
 62
7
100
AcDbSpline
 70
8
 71
3
 72
8
 73
4
 74
0
 40
0
 40
0
 40
0
 40
0
 40
1
 40
1
 40
1
 40
1
 10
0.090769
 20
0.105643
 30
0.0
 10
0.087270
 20
0.105643
 30
0.0
 10
0.084426
 20
0.108487
 30
0.0
 10
0.084426
 20
0.111986
 30
0.0
  0
SPLINE
  5
11c
100
AcDbEntity
  8
0
 62
7
100
AcDbSpline
 70
8
 71
3
 72
8
 73
4
 74
0
 40
0
 40
0
 40
0
 40
0
 40
1
 40
1
 40
1
 40
1
 10
0.084426
 20
0.111986
 30
0.0
 10
0.084426
 20
0.115486
 30
0.0
 10
0.087270
 20
0.118330
 30
0.0
 10
0.090769
 20
0.118330
 30
0.0
  0
LINE
  5
11d
100
AcDbEntity
  8
0
 62
7
100
AcDbLine
 10
0.090769
 20
0.118330
 30
0.0
 11
0.106080
 21
0.118330
 31
0.0
  0
SPLINE
  5
11e
100
AcDbEntity
  8
0
 62
7
100
AcDbSpline
 70
8
 71
3
 72
8
 73
4
 74
0
 40
0
 40
0
 40
0
 40
0
 40
1
 40
1
 40
1
 40
1
 10
0.106080
 20
0.118330
 30
0.0
 10
0.109579
 20
0.118330
 30
0.0
 10
0.112423
 20
0.115486
 30
0.0
 10
0.112423
 20
0.111986
 30
0.0
  0
SPLINE
  5
11f
100
AcDbEntity
  8
0
 62
7
100
AcDbSpline
 70
8
 71
3
 72
8
 73
4
 74
0
 40
0
 40
0
 40
0
 40
0
 40
1
 40
1
 40
1
 40
1
 10
0.112423
 20
0.111986
 30
0.0
 10
0.112423
 20
0.108487
 30
0.0
 10
0.109579
 20
0.105643
 30
0.0
 10
0.106080
 20
0.105643
 30
0.0
  0
LINE
  5
120
100
AcDbEntity
  8
0
 62
7
100
AcDbLine
 10
0.106080
 20
0.105643
 30
0.0
 11
0.104768
 21
0.105643
 31
0.0
  0
LINE
  5
121
100
AcDbEntity
  8
0
 62
7
100
AcDbLine
 10
0.104768
 20
0.105643
 30
0.0
 11
0.104768
 21
0.080490
 31
0.0
  0
LINE
  5
122
100
AcDbEntity
  8
0
 62
7
100
AcDbLine
 10
0.104768
 20
0.080490
 30
0.0
 11
0.114173
 21
0.080490
 31
0.0
  0
SPLINE
  5
123
100
AcDbEntity
  8
0
 62
7
100
AcDbSpline
 70
8
 71
3
 72
8
 73
4
 74
0
 40
0
 40
0
 40
0
 40
0
 40
1
 40
1
 40
1
 40
1
 10
0.114173
 20
0.080490
 30
0.0
 10
0.117673
 20
0.080490
 30
0.0
 10
0.120516
 20
0.077646
 30
0.0
 10
0.120516
 20
0.074147
 30
0.0
  0
SPLINE
  5
124
100
AcDbEntity
  8
0
 62
7
100
AcDbSpline
 70
8
 71
3
 72
8
 73
4
 74
0
 40
0
 40
0
 40
0
 40
0
 40
1
 40
1
 40
1
 40
1
 10
0.120516
 20
0.074147
 30
0.0
 10
0.120516
 20
0.070648
 30
0.0
 10
0.117673
 20
0.067804
 30
0.0
 10
0.114172
 20
0.067804
 30
0.0
  0
LINE
  5
125
100
AcDbEntity
  8
0
 62
7
100
AcDbLine
 10
0.114172
 20
0.067804
 30
0.0
 11
0.114173
 21
0.067804
 31
0.0
  0
SPLINE
  5
126
100
AcDbEntity
  8
0
 62
7
100
AcDbSpline
 70
8
 71
3
 72
8
 73
4
 74
0
 40
0
 40
0
 40
0
 40
0
 40
1
 40
1
 40
1
 40
1
 10
0.129921
 20
0.087489
 30
0.0
 10
0.128609
 20
0.086395
 30
0.0
 10
0.126859
 20
0.085739
 30
0.0
 10
0.125328
 20
0.085739
 30
0.0
  0
SPLINE
  5
127
100
AcDbEntity
  8
0
 62
7
100
AcDbSpline
 70
8
 71
3
 72
8
 73
4
 74
0
 40
0
 40
0
 40
0
 40
0
 40
1
 40
1
 40
1
 40
1
 10
0.125328
 20
0.085739
 30
0.0
 10
0.123578
 20
0.085739
 30
0.0
 10
0.122048
 20
0.086176
 30
0.0
 10
0.120735
 20
0.087489
 30
0.0
  0
SPLINE
  5
128
100
AcDbEntity
  8
0
 62
7
100
AcDbSpline
 70
8
 71
3
 72
8
 73
4
 74
0
 40
0
 40
0
 40
0
 40
0
 40
1
 40
1
 40
1
 40
1
 10
0.120735
 20
0.087489
 30
0.0
 10
0.118330
 20
0.089895
 30
0.0
 10
0.118330
 20
0.094051
 30
0.0
 10
0.120735
 20
0.096456
 30
0.0
  0
SPLINE
  5
129
100
AcDbEntity
  8
0
 62
7
100
AcDbSpline
 70
8
 71
3
 72
8
 73
4
 74
0
 40
0
 40
0
 40
0
 40
0
 40
1
 40
1
 40
1
 40
1
 10
0.120735
 20
0.096456
 30
0.0
 10
0.126641
 20
0.102361
 30
0.0
 10
0.129921
 20
0.110236
 30
0.0
 10
0.129921
 20
0.118766
 30
0.0
  0
SPLINE
  5
12a
100
AcDbEntity
  8
0
 62
7
100
AcDbSpline
 70
8
 71
3
 72
8
 73
4
 74
0
 40
0
 40
0
 40
0
 40
0
 40
1
 40
1
 40
1
 40
1
 10
0.129921
 20
0.118766
 30
0.0
 10
0.129921
 20
0.127296
 30
0.0
 10
0.126641
 20
0.135170
 30
0.0
 10
0.120735
 20
0.141076
 30
0.0
  0
SPLINE
  5
12b
100
AcDbEntity
  8
0
 62
7
100
AcDbSpline
 70
8
 71
3
 72
8
 73
4
 74
0
 40
0
 40
0
 40
0
 40
0
 40
1
 40
1
 40
1
 40
1
 10
0.120735
 20
0.141076
 30
0.0
 10
0.108487
 20
0.153324
 30
0.0
 10
0.088364
 20
0.153324
 30
0.0
 10
0.076116
 20
0.141076
 30
0.0
  0
SPLINE
  5
12c
100
AcDbEntity
  8
0
 62
7
100
AcDbSpline
 70
8
 71
3
 72
8
 73
4
 74
0
 40
0
 40
0
 40
0
 40
0
 40
1
 40
1
 40
1
 40
1
 10
0.076116
 20
0.141076
 30
0.0
 10
0.063868
 20
0.128827
 30
0.0
 10
0.063868
 20
0.108705
 30
0.0
 10
0.076116
 20
0.096456
 30
0.0
  0
SPLINE
  5
12d
100
AcDbEntity
  8
0
 62
7
100
AcDbSpline
 70
8
 71
3
 72
8
 73
4
 74
0
 40
0
 40
0
 40
0
 40
0
 40
1
 40
1
 40
1
 40
1
 10
0.076116
 20
0.096456
 30
0.0
 10
0.078522
 20
0.094051
 30
0.0
 10
0.078522
 20
0.089895
 30
0.0
 10
0.076116
 20
0.087489
 30
0.0
  0
SPLINE
  5
12e
100
AcDbEntity
  8
0
 62
7
100
AcDbSpline
 70
8
 71
3
 72
8
 73
4
 74
0
 40
0
 40
0
 40
0
 40
0
 40
1
 40
1
 40
1
 40
1
 10
0.076116
 20
0.087489
 30
0.0
 10
0.073710
 20
0.085083
 30
0.0
 10
0.069554
 20
0.085083
 30
0.0
 10
0.067149
 20
0.087489
 30
0.0
  0
SPLINE
  5
12f
100
AcDbEntity
  8
0
 62
7
100
AcDbSpline
 70
8
 71
3
 72
8
 73
4
 74
0
 40
0
 40
0
 40
0
 40
0
 40
1
 40
1
 40
1
 40
1
 10
0.067149
 20
0.087489
 30
0.0
 10
0.049869
 20
0.104768
 30
0.0
 10
0.049869
 20
0.132764
 30
0.0
 10
0.067149
 20
0.150044
 30
0.0
  0
SPLINE
  5
130
100
AcDbEntity
  8
0
 62
7
100
AcDbSpline
 70
8
 71
3
 72
8
 73
4
 74
0
 40
0
 40
0
 40
0
 40
0
 40
1
 40
1
 40
1
 40
1
 10
0.067149
 20
0.150044
 30
0.0
 10
0.084428
 20
0.167323
 30
0.0
 10
0.112424
 20
0.167323
 30
0.0
 10
0.129922
 20
0.150044
 30
0.0
  0
SPLINE
  5
131
100
AcDbEntity
  8
0
 62
7
100
AcDbSpline
 70
8
 71
3
 72
8
 73
4
 74
0
 40
0
 40
0
 40
0
 40
0
 40
1
 40
1
 40
1
 40
1
 10
0.129922
 20
0.150044
 30
0.0
 10
0.138234
 20
0.141732
 30
0.0
 10
0.142827
 20
0.130577
 30
0.0
 10
0.142827
 20
0.118766
 30
0.0
  0
SPLINE
  5
132
100
AcDbEntity
  8
0
 62
7
100
AcDbSpline
 70
8
 71
3
 72
8
 73
4
 74
0
 40
0
 40
0
 40
0
 40
0
 40
1
 40
1
 40
1
 40
1
 10
0.142827
 20
0.118766
 30
0.0
 10
0.142827
 20
0.106956
 30
0.0
 10
0.138233
 20
0.095802
 30
0.0
 10
0.129922
 20
0.087491
 30
0.0
  0
LINE
  5
133
100
AcDbEntity
  8
0
 62
7
100
AcDbLine
 10
0.129922
 20
0.087491
 30
0.0
 11
0.129921
 21
0.087489
 31
0.0
  0
ENDSEC
  0
SECTION
  2
OBJECTS
  0
DICTIONARY
  5
C
330
0
100
AcDbDictionary
  3
ACAD_GROUP
350
D
  3
ACAD_MLINESTYLE
350
17
  0
DICTIONARY
  5
D
330
C
100
AcDbDictionary
  0
DICTIONARY
  5
1A
330
C
100
AcDbDictionary
  0
DICTIONARY
  5
17
330
C
100
AcDbDictionary
  3
STANDARD
350
18
  0
DICTIONARY
  5
19
330
C
100
AcDbDictionary
  0
ENDSEC
  0
EOF
